<svg width="38" height="38" xmlns="http://www.w3.org/2000/svg" preserveAspectRatio="xMinYMin meet" version="1.1">

 <g>
  <title>Layer 1</title>
  <text id="svg_1" fill="#323232" font-size="3px" font-family="arial" y="21" x="12">Amr Board...</text>
  <path id="svg_2" d="m20,35c-8.271,0 -15,-6.729 -15,-15s6.729,-15 15,-15s15,6.729 15,15s-6.729,15 -15,15zm0,-29.797c-8.159,0 -14.797,6.638 -14.797,14.797c0,8.159 6.638,14.797 14.797,14.797s14.797,-6.638 14.797,-14.797c0,-8.159 -6.638,-14.797 -14.797,-14.797z" fill="#dbdbdb"/>
  <path id="svg_3" d="m20,33.125c-7.237,0 -13.125,-5.888 -13.125,-13.125s5.888,-13.125 13.125,-13.125s13.125,5.888 13.125,13.125s-5.888,13.125 -13.125,13.125zm0,-26.047c-7.125,0 -12.922,5.797 -12.922,12.922c0,7.125 5.797,12.922 12.922,12.922s12.922,-5.797 12.922,-12.922c0,-7.125 -5.797,-12.922 -12.922,-12.922z" fill="#dbdbdb"/>
  <path id="svg_4" d="m5.203,20c0,-8.159 6.638,-14.797 14.797,-14.797l0,-0.203c-8.271,0 -15,6.729 -15,15s6.729,15 15,15l0,-0.203c-8.159,0 -14.797,-6.638 -14.797,-14.797z" stroke-miterlimit="10" stroke-width="1.2" stroke="#337ce6" fill="#2AA198"/>
  <path id="svg_5" d="m7.078,20c0,-7.125 5.797,-12.922 12.922,-12.922l0,-0.203c-7.237,0 -13.125,5.888 -13.125,13.125s5.888,13.125 13.125,13.125l0,-0.203c-7.125,0 -12.922,-5.797 -12.922,-12.922z" stroke-miterlimit="10" stroke-width="0.7" stroke="#18498e" fill="#859900"/>
  <path id="svg_6" d="m37.47288,43.18715" opacity="NaN" fill="#323232"/>
  <path id="svg_7" d="m21.46305,20.03448l-4.468,-0.08377" opacity="NaN" fill="#323232"/>
 </g>
</svg>